<?xml version="1.0" encoding="UTF-8"?>
<svg xmlns="http://www.w3.org/2000/svg" viewBox="0 0 512 130" preserveAspectRatio="xMidYMid">
  <title>Cloudflare</title>
  <g fill="#FFFFFF">
    <path d="M115.679 84.769l.81-2.83c.965-3.333.605-6.409-1.013-8.675-1.489-2.082-3.969-3.297-6.969-3.444l-56.798-.735c-.378 0-.706-.184-.882-.46-.176-.31-.227-.677-.119-1.024.181-.55.715-.953 1.295-1.005l57.318-.735c6.798-.31 14.158-5.808 16.733-12.527l3.27-8.527a2.018 2.018 0 0 0 .096-1.158C125.706 19.95 109.408 6 89.86 6c-18.012 0-33.286 11.59-38.708 27.692a18.473 18.473 0 0 0-12.974-3.596c-9.36.928-16.881 8.45-17.811 17.808a18.74 18.74 0 0 0 .478 6.354C5.667 54.7.236 65.273.236 77.115c0 1.067.078 2.131.234 3.183a1.477 1.477 0 0 0 1.456 1.27h111.236c.689 0 1.296-.452 1.477-1.105l1.04-.694z"/>
    <path d="M133.946 47.018c-.521 0-1.044.018-1.564.05-.355.02-.667.272-.785.61l-2.232 7.71c-.965 3.333-.605 6.408 1.013 8.675 1.489 2.082 3.969 3.296 6.969 3.443l12.111.735c.36 0 .689.184.865.46.176.31.227.694.118 1.041-.181.55-.715.953-1.295 1.005l-12.594.735c-6.832.31-14.158 5.81-16.733 12.527l-.91 2.367c-.18.461.139.928.628.928h43.342c.673 0 1.262-.43 1.467-1.084a31.103 31.103 0 0 0 1.149-8.39c-.001-17.184-13.967-31.151-31.149-31.151"/>
    <path d="M469.557 47.018c-12.612 0-22.838 10.226-22.838 22.84 0 12.613 10.226 22.84 22.838 22.84 12.613 0 22.84-10.227 22.84-22.84 0-12.614-10.227-22.84-22.84-22.84zm0 35.59c-7.04 0-12.745-5.71-12.745-12.75 0-7.041 5.706-12.75 12.745-12.75 7.041 0 12.745 5.709 12.745 12.75 0 7.04-5.704 12.75-12.745 12.75z"/>
    <path d="M198.946 81.769h-15.917V49.082c0-.674-.546-1.22-1.22-1.22h-8.71c-.674 0-1.22.546-1.22 1.22V91.49c0 .673.546 1.219 1.22 1.219h25.847c.674 0 1.22-.546 1.22-1.22v-8.5c0-.674-.546-1.22-1.22-1.22z"/>
    <path d="M232.105 47.018c-12.612 0-22.838 10.226-22.838 22.84 0 12.613 10.226 22.84 22.838 22.84 12.613 0 22.84-10.227 22.84-22.84 0-12.614-10.227-22.84-22.84-22.84zm0 35.59c-7.04 0-12.745-5.71-12.745-12.75 0-7.041 5.706-12.75 12.745-12.75 7.041 0 12.745 5.709 12.745 12.75 0 7.04-5.704 12.75-12.745 12.75z"/>
    <path d="M308.484 47.862h-8.71a1.219 1.219 0 0 0-1.218 1.22v23.973c0 6.245-3.225 9.408-8.553 9.408-5.328 0-8.553-3.06-8.553-9.197V49.082c0-.674-.546-1.22-1.22-1.22h-8.71c-.674 0-1.22.546-1.22 1.22V73.79c0 12.39 6.93 19.602 19.073 19.602 12.144 0 19.336-7.318 19.336-19.918V49.082a1.22 1.22 0 0 0-1.225-1.22z"/>
    <path d="M348.317 47.862h-15.78c-.674 0-1.22.546-1.22 1.22V91.49c0 .673.546 1.219 1.22 1.219h15.78c14.157 0 23.557-8.764 23.557-22.42 0-13.657-9.4-22.427-23.557-22.427zm0 35.063h-5.834V57.652h5.834c7.453 0 12.39 4.622 12.39 12.59 0 7.967-4.937 12.683-12.39 12.683z"/>
    <path d="M414.317 81.769h-19.34v-7.81h17.058a1.22 1.22 0 0 0 1.22-1.22v-8.502c0-.674-.546-1.22-1.22-1.22h-17.058v-6.913h19.022a1.22 1.22 0 0 0 1.22-1.22v-8.502c0-.674-.546-1.22-1.22-1.22h-29.452c-.673 0-1.22.546-1.22 1.22V91.49c0 .673.547 1.219 1.22 1.219h29.77c.674 0 1.22-.546 1.22-1.22v-8.5c0-.674-.547-1.22-1.22-1.22z"/>
    <path d="M447.106 71.83a13.486 13.486 0 0 0 7.402-12.067c0-7.617-5.81-11.901-14.157-11.901h-17.486a1.22 1.22 0 0 0-1.22 1.22V91.49c0 .673.547 1.219 1.22 1.219h8.71c.674 0 1.22-.546 1.22-1.22v-14.39h4.46l9.198 14.954a1.219 1.219 0 0 0 1.04.591h9.93c.464 0 .881-.262 1.084-.673a1.218 1.218 0 0 0-.064-1.276l-11.337-19.305zM439.5 69.51h-6.706v-12.07h6.706c3.96 0 6.012 2.155 6.012 5.974 0 3.93-2.052 6.097-6.012 6.097z"/>
  </g>
</svg>
